# xmcd
#
# Track frame offsets:
#	150
#	15042
#	34150
#	53258
#	69991
#	86886
#	103890
#	119431
#	134658
#	152691
#	171236
#	187781
#	203226
#	219054
#
# Disc length: 3130 seconds
#
# Revision: 3
# Processed by: cddbd v1.5.2PL0 Copyright (c) Steve Scherf et al.
# Submitted via: EasyCDDAExtractor 2010.4.0.0
#
DISCID=b20c380e
DTITLE=สายันห์ สัญญา - ต้นฉบับเพลงดัง10
DYEAR=2541
DGENRE=Rhythmic Soul
TTITLE0=น้ำตานาง
TTITLE1=เสียความรู้สึก
TTITLE2=รอจนกว่าจะรัก
TTITLE3=อกหักซ้ำสอง
TTITLE4=อยู่กับความผิดหวัง
TTITLE5=พรุ่งนี้จะทำไฉน
TTITLE6=เฝ้าคอยเฝ้าหวัง
TTITLE7=พบกันชาติหน้าบ่ายๆ
TTITLE8=เหมือนเดิมหรือป่าว
TTITLE9=ชีวิตสายันห์
TTITLE10=ขวัญใจคนเดิม
TTITLE11=อกหักซ้ำสาม
TTITLE12=ฉันผิดตรงไหน
TTITLE13=ขอสถิตย์ในใจเธอ
EXTD=
EXTT0=
EXTT1=
EXTT2=
EXTT3=
EXTT4=
EXTT5=
EXTT6=
EXTT7=
EXTT8=
EXTT9=
EXTT10=
EXTT11=
EXTT12=
EXTT13=
PLAYORDER=
